<mxfile host="app.diagrams.net" modified="2023-04-08T04:57:44.399Z" agent="Mozilla/5.0 (Windows NT 10.0; Win64; x64) AppleWebKit/537.36 (KHTML, like Gecko) Chrome/111.0.0.0 Safari/537.36 Edg/111.0.1661.62" etag="oVPhnOANhxmhEs4T96Zh" version="21.1.5" type="device">
  <diagram name="第 1 页" id="q1Zje_L8uIQrVBP5tb2j">
    <mxGraphModel dx="1045" dy="578" grid="1" gridSize="10" guides="1" tooltips="1" connect="1" arrows="1" fold="1" page="1" pageScale="1" pageWidth="827" pageHeight="1169" math="0" shadow="0">
      <root>
        <mxCell id="0" />
        <mxCell id="1" parent="0" />
        <mxCell id="R-gfNX3bE267YXfzRcQb-65" value="" style="edgeStyle=orthogonalEdgeStyle;rounded=0;orthogonalLoop=1;jettySize=auto;html=1;" edge="1" parent="1" source="R-gfNX3bE267YXfzRcQb-63" target="R-gfNX3bE267YXfzRcQb-64">
          <mxGeometry relative="1" as="geometry" />
        </mxCell>
        <mxCell id="R-gfNX3bE267YXfzRcQb-63" value="" style="ellipse;html=1;shape=endState;fillColor=#000000;strokeColor=#ff0000;" vertex="1" parent="1">
          <mxGeometry x="400" y="30" width="30" height="30" as="geometry" />
        </mxCell>
        <mxCell id="R-gfNX3bE267YXfzRcQb-67" value="" style="edgeStyle=orthogonalEdgeStyle;rounded=0;orthogonalLoop=1;jettySize=auto;html=1;" edge="1" parent="1" source="R-gfNX3bE267YXfzRcQb-64" target="R-gfNX3bE267YXfzRcQb-66">
          <mxGeometry relative="1" as="geometry" />
        </mxCell>
        <mxCell id="R-gfNX3bE267YXfzRcQb-86" value="是" style="edgeLabel;html=1;align=center;verticalAlign=middle;resizable=0;points=[];" vertex="1" connectable="0" parent="R-gfNX3bE267YXfzRcQb-67">
          <mxGeometry x="-0.0074" relative="1" as="geometry">
            <mxPoint as="offset" />
          </mxGeometry>
        </mxCell>
        <mxCell id="R-gfNX3bE267YXfzRcQb-71" value="" style="edgeStyle=orthogonalEdgeStyle;rounded=0;orthogonalLoop=1;jettySize=auto;html=1;" edge="1" parent="1" source="R-gfNX3bE267YXfzRcQb-64" target="R-gfNX3bE267YXfzRcQb-70">
          <mxGeometry relative="1" as="geometry" />
        </mxCell>
        <mxCell id="R-gfNX3bE267YXfzRcQb-87" value="否" style="edgeLabel;html=1;align=center;verticalAlign=middle;resizable=0;points=[];" vertex="1" connectable="0" parent="R-gfNX3bE267YXfzRcQb-71">
          <mxGeometry x="-0.1667" y="3" relative="1" as="geometry">
            <mxPoint as="offset" />
          </mxGeometry>
        </mxCell>
        <mxCell id="R-gfNX3bE267YXfzRcQb-64" value="是否已注册" style="rhombus;whiteSpace=wrap;html=1;fillColor=none;strokeColor=#ff0000;" vertex="1" parent="1">
          <mxGeometry x="375" y="115" width="80" height="80" as="geometry" />
        </mxCell>
        <mxCell id="R-gfNX3bE267YXfzRcQb-73" value="" style="edgeStyle=orthogonalEdgeStyle;rounded=0;orthogonalLoop=1;jettySize=auto;html=1;" edge="1" parent="1" source="R-gfNX3bE267YXfzRcQb-66" target="R-gfNX3bE267YXfzRcQb-72">
          <mxGeometry relative="1" as="geometry" />
        </mxCell>
        <mxCell id="R-gfNX3bE267YXfzRcQb-66" value="输入用户名和密码" style="whiteSpace=wrap;html=1;fillColor=none;strokeColor=#ff0000;" vertex="1" parent="1">
          <mxGeometry x="120" y="210" width="120" height="60" as="geometry" />
        </mxCell>
        <mxCell id="R-gfNX3bE267YXfzRcQb-77" value="" style="edgeStyle=orthogonalEdgeStyle;rounded=0;orthogonalLoop=1;jettySize=auto;html=1;" edge="1" parent="1" source="R-gfNX3bE267YXfzRcQb-70" target="R-gfNX3bE267YXfzRcQb-76">
          <mxGeometry relative="1" as="geometry" />
        </mxCell>
        <mxCell id="R-gfNX3bE267YXfzRcQb-70" value="输入用户名、邮箱、密码" style="whiteSpace=wrap;html=1;fillColor=none;strokeColor=#ff0000;" vertex="1" parent="1">
          <mxGeometry x="580" y="125" width="120" height="60" as="geometry" />
        </mxCell>
        <mxCell id="R-gfNX3bE267YXfzRcQb-75" value="" style="edgeStyle=orthogonalEdgeStyle;rounded=0;orthogonalLoop=1;jettySize=auto;html=1;" edge="1" parent="1" source="R-gfNX3bE267YXfzRcQb-72" target="R-gfNX3bE267YXfzRcQb-74">
          <mxGeometry relative="1" as="geometry">
            <Array as="points">
              <mxPoint x="180" y="450" />
              <mxPoint x="180" y="450" />
            </Array>
          </mxGeometry>
        </mxCell>
        <mxCell id="R-gfNX3bE267YXfzRcQb-89" value="是" style="edgeLabel;html=1;align=center;verticalAlign=middle;resizable=0;points=[];" vertex="1" connectable="0" parent="R-gfNX3bE267YXfzRcQb-75">
          <mxGeometry x="-0.2624" y="-2" relative="1" as="geometry">
            <mxPoint as="offset" />
          </mxGeometry>
        </mxCell>
        <mxCell id="R-gfNX3bE267YXfzRcQb-90" style="edgeStyle=orthogonalEdgeStyle;rounded=0;orthogonalLoop=1;jettySize=auto;html=1;exitX=1;exitY=0.5;exitDx=0;exitDy=0;entryX=1;entryY=0.5;entryDx=0;entryDy=0;" edge="1" parent="1" source="R-gfNX3bE267YXfzRcQb-72" target="R-gfNX3bE267YXfzRcQb-66">
          <mxGeometry relative="1" as="geometry">
            <Array as="points">
              <mxPoint x="360" y="380" />
              <mxPoint x="360" y="240" />
            </Array>
          </mxGeometry>
        </mxCell>
        <mxCell id="R-gfNX3bE267YXfzRcQb-91" value="否" style="edgeLabel;html=1;align=center;verticalAlign=middle;resizable=0;points=[];" vertex="1" connectable="0" parent="R-gfNX3bE267YXfzRcQb-90">
          <mxGeometry x="-0.0973" relative="1" as="geometry">
            <mxPoint as="offset" />
          </mxGeometry>
        </mxCell>
        <mxCell id="R-gfNX3bE267YXfzRcQb-72" value="信息是否正确" style="rhombus;whiteSpace=wrap;html=1;fillColor=none;strokeColor=#ff0000;" vertex="1" parent="1">
          <mxGeometry x="140" y="340" width="80" height="80" as="geometry" />
        </mxCell>
        <mxCell id="R-gfNX3bE267YXfzRcQb-85" style="edgeStyle=orthogonalEdgeStyle;rounded=0;orthogonalLoop=1;jettySize=auto;html=1;exitX=0.5;exitY=1;exitDx=0;exitDy=0;entryX=0.5;entryY=0;entryDx=0;entryDy=0;" edge="1" parent="1" source="R-gfNX3bE267YXfzRcQb-74" target="R-gfNX3bE267YXfzRcQb-84">
          <mxGeometry relative="1" as="geometry" />
        </mxCell>
        <mxCell id="R-gfNX3bE267YXfzRcQb-74" value="登陆成功" style="whiteSpace=wrap;html=1;fillColor=none;strokeColor=#ff0000;" vertex="1" parent="1">
          <mxGeometry x="120" y="510" width="120" height="60" as="geometry" />
        </mxCell>
        <mxCell id="R-gfNX3bE267YXfzRcQb-81" value="" style="edgeStyle=orthogonalEdgeStyle;rounded=0;orthogonalLoop=1;jettySize=auto;html=1;" edge="1" parent="1" source="R-gfNX3bE267YXfzRcQb-76" target="R-gfNX3bE267YXfzRcQb-80">
          <mxGeometry relative="1" as="geometry" />
        </mxCell>
        <mxCell id="R-gfNX3bE267YXfzRcQb-76" value="再次确认密码" style="whiteSpace=wrap;html=1;fillColor=none;strokeColor=#ff0000;" vertex="1" parent="1">
          <mxGeometry x="580" y="300" width="120" height="60" as="geometry" />
        </mxCell>
        <mxCell id="R-gfNX3bE267YXfzRcQb-83" value="" style="edgeStyle=orthogonalEdgeStyle;rounded=0;orthogonalLoop=1;jettySize=auto;html=1;" edge="1" parent="1" source="R-gfNX3bE267YXfzRcQb-80" target="R-gfNX3bE267YXfzRcQb-82">
          <mxGeometry relative="1" as="geometry">
            <Array as="points">
              <mxPoint x="575" y="510" />
              <mxPoint x="575" y="510" />
            </Array>
          </mxGeometry>
        </mxCell>
        <mxCell id="R-gfNX3bE267YXfzRcQb-88" value="是" style="edgeLabel;html=1;align=center;verticalAlign=middle;resizable=0;points=[];" vertex="1" connectable="0" parent="R-gfNX3bE267YXfzRcQb-83">
          <mxGeometry x="-0.2381" y="-1" relative="1" as="geometry">
            <mxPoint as="offset" />
          </mxGeometry>
        </mxCell>
        <mxCell id="R-gfNX3bE267YXfzRcQb-92" style="edgeStyle=orthogonalEdgeStyle;rounded=0;orthogonalLoop=1;jettySize=auto;html=1;exitX=1;exitY=0.5;exitDx=0;exitDy=0;entryX=1;entryY=0.5;entryDx=0;entryDy=0;" edge="1" parent="1" source="R-gfNX3bE267YXfzRcQb-80" target="R-gfNX3bE267YXfzRcQb-76">
          <mxGeometry relative="1" as="geometry">
            <Array as="points">
              <mxPoint x="730" y="435" />
              <mxPoint x="730" y="330" />
            </Array>
          </mxGeometry>
        </mxCell>
        <mxCell id="R-gfNX3bE267YXfzRcQb-93" value="否" style="edgeLabel;html=1;align=center;verticalAlign=middle;resizable=0;points=[];" vertex="1" connectable="0" parent="R-gfNX3bE267YXfzRcQb-92">
          <mxGeometry x="-0.1615" y="1" relative="1" as="geometry">
            <mxPoint as="offset" />
          </mxGeometry>
        </mxCell>
        <mxCell id="R-gfNX3bE267YXfzRcQb-80" value="两次是否一致" style="rhombus;whiteSpace=wrap;html=1;fillColor=none;strokeColor=#ff0000;" vertex="1" parent="1">
          <mxGeometry x="600" y="395" width="80" height="80" as="geometry" />
        </mxCell>
        <mxCell id="R-gfNX3bE267YXfzRcQb-94" style="edgeStyle=orthogonalEdgeStyle;rounded=0;orthogonalLoop=1;jettySize=auto;html=1;exitX=1;exitY=0.5;exitDx=0;exitDy=0;entryX=0.5;entryY=0;entryDx=0;entryDy=0;" edge="1" parent="1" source="R-gfNX3bE267YXfzRcQb-82" target="R-gfNX3bE267YXfzRcQb-64">
          <mxGeometry relative="1" as="geometry">
            <Array as="points">
              <mxPoint x="790" y="610" />
              <mxPoint x="790" y="95" />
              <mxPoint x="415" y="95" />
            </Array>
          </mxGeometry>
        </mxCell>
        <mxCell id="R-gfNX3bE267YXfzRcQb-82" value="注册成功" style="whiteSpace=wrap;html=1;fillColor=none;strokeColor=#ff0000;" vertex="1" parent="1">
          <mxGeometry x="520" y="580" width="120" height="60" as="geometry" />
        </mxCell>
        <mxCell id="R-gfNX3bE267YXfzRcQb-84" value="" style="ellipse;html=1;shape=endState;fillColor=#000000;strokeColor=#ff0000;" vertex="1" parent="1">
          <mxGeometry x="165" y="640" width="30" height="30" as="geometry" />
        </mxCell>
      </root>
    </mxGraphModel>
  </diagram>
</mxfile>
